<svg id="svg" version="1.1" xmlns="http://www.w3.org/2000/svg" xmlns:xlink="http://www.w3.org/1999/xlink" width="400" height="497.9089790897909" viewBox="0, 0, 400,497.9089790897909"><g id="svgg"><path id="path0" d="M191.800 33.838 C 123.246 38.054,63.957 85.093,39.335 154.800 C 27.046 189.593,26.502 232.081,37.861 270.000 C 41.208 281.173,49.875 303.365,54.499 312.600 C 59.949 323.484,72.691 346.340,77.310 353.517 C 78.260 354.993,79.819 357.415,80.774 358.900 L 82.511 361.600 90.079 361.600 C 94.242 361.600,97.567 361.465,97.468 361.300 C 97.370 361.135,96.092 359.039,94.629 356.643 C 87.118 344.344,73.303 317.217,69.347 307.000 C 59.112 280.563,55.378 266.137,52.626 242.400 C 48.015 202.624,56.390 164.260,77.293 129.407 C 133.732 35.301,251.940 28.082,316.478 114.800 C 350.054 159.915,360.382 217.042,345.332 274.400 C 343.834 280.109,336.646 301.054,333.870 307.800 C 333.326 309.120,332.396 311.370,331.802 312.800 C 328.863 319.876,314.756 346.965,309.305 356.000 C 307.645 358.750,306.212 361.135,306.120 361.300 C 306.028 361.465,309.338 361.590,313.476 361.579 L 321.000 361.557 322.968 358.479 C 328.535 349.767,335.421 337.893,342.562 324.687 C 350.461 310.080,353.515 303.431,358.400 290.200 C 359.537 287.120,361.070 282.980,361.807 281.000 C 374.960 245.640,377.310 202.642,368.004 167.600 C 353.952 114.683,312.198 64.989,266.563 46.865 C 265.483 46.436,262.800 45.372,260.600 44.501 C 240.312 36.465,214.397 32.448,191.800 33.838 " stroke="none" fill="#24abe3" fill-rule="evenodd"></path><path id="path1" d="M192.400 54.415 C 141.042 58.861,98.434 88.649,72.264 138.407 C 50.996 178.843,46.195 220.147,57.038 269.390 C 58.860 277.668,63.613 292.187,69.347 307.000 C 73.344 317.322,87.138 344.383,94.747 356.827 L 97.543 361.400 105.562 361.508 C 115.005 361.636,114.533 362.401,109.583 355.000 C 107.670 352.140,105.434 348.495,104.614 346.900 C 103.794 345.305,102.960 343.899,102.761 343.776 C 102.561 343.652,102.047 342.782,101.619 341.841 C 101.190 340.900,100.561 339.899,100.220 339.616 C 99.879 339.334,99.600 338.966,99.600 338.799 C 99.600 338.499,97.120 334.168,96.508 333.400 C 96.333 333.180,95.843 332.190,95.420 331.200 C 94.996 330.210,94.438 329.130,94.180 328.800 C 93.921 328.470,93.390 327.345,93.000 326.300 C 92.610 325.255,92.160 324.400,92.000 324.400 C 91.840 324.400,91.401 323.421,91.025 322.223 C 90.648 321.026,90.209 319.991,90.049 319.923 C 89.888 319.856,89.337 318.450,88.824 316.800 C 88.311 315.150,87.769 313.710,87.620 313.600 C 87.472 313.490,87.022 312.320,86.620 311.000 C 86.218 309.680,85.752 308.420,85.584 308.200 C 85.416 307.980,85.064 306.990,84.803 306.000 C 84.542 305.010,84.090 303.660,83.798 303.000 C 83.215 301.680,81.624 296.956,80.295 292.600 C 79.825 291.060,79.331 289.710,79.196 289.600 C 79.061 289.490,78.617 288.140,78.209 286.600 C 77.802 285.060,77.312 283.530,77.122 283.200 C 76.628 282.343,74.906 273.995,73.821 267.200 C 73.312 264.010,72.789 261.130,72.659 260.800 C 72.299 259.887,71.264 249.232,70.987 243.600 C 70.852 240.850,70.629 238.060,70.491 237.400 C 70.158 235.801,70.163 225.222,70.500 222.200 C 70.646 220.880,70.868 218.090,70.992 216.000 C 71.310 210.634,72.471 200.239,72.779 200.000 C 72.921 199.890,73.362 197.730,73.758 195.200 C 74.155 192.670,74.602 190.510,74.751 190.400 C 74.901 190.290,75.441 188.310,75.952 186.000 C 76.463 183.690,77.013 181.620,77.174 181.400 C 77.336 181.180,77.793 179.740,78.191 178.200 C 78.589 176.660,79.051 175.220,79.219 175.000 C 79.387 174.780,79.833 173.520,80.210 172.200 C 80.588 170.880,81.053 169.604,81.245 169.363 C 81.436 169.123,81.937 167.863,82.357 166.563 C 82.778 165.264,83.408 163.660,83.758 163.000 C 84.109 162.340,84.396 161.662,84.398 161.494 C 84.399 161.326,85.570 158.743,87.000 155.755 C 88.430 152.767,89.600 150.218,89.600 150.092 C 89.600 149.966,89.840 149.579,90.134 149.231 C 90.428 148.884,90.913 147.970,91.211 147.200 C 91.510 146.430,91.881 145.710,92.036 145.600 C 92.292 145.418,93.255 143.751,95.239 140.052 C 95.637 139.311,96.215 138.411,96.523 138.052 C 96.831 137.694,97.334 136.815,97.639 136.100 C 97.945 135.385,98.334 134.800,98.504 134.800 C 98.674 134.800,99.113 134.170,99.481 133.400 C 99.848 132.630,100.277 132.000,100.434 132.000 C 100.591 132.000,101.117 131.235,101.603 130.300 C 102.090 129.365,102.607 128.510,102.754 128.400 C 102.996 128.218,104.563 126.223,107.200 122.739 C 107.750 122.013,108.785 120.762,109.500 119.961 C 110.215 119.159,110.800 118.419,110.800 118.316 C 110.800 117.787,122.582 105.774,125.821 103.000 C 126.849 102.120,127.894 101.215,128.145 100.989 C 128.980 100.234,133.081 97.008,133.977 96.400 C 135.108 95.632,138.863 92.909,139.444 92.436 C 139.688 92.237,140.646 91.652,141.573 91.137 C 142.501 90.622,144.034 89.750,144.981 89.200 C 148.886 86.933,152.275 85.161,153.888 84.545 C 154.829 84.186,155.600 83.755,155.600 83.589 C 155.600 83.423,156.095 83.167,156.700 83.020 C 157.305 82.873,158.520 82.414,159.400 81.999 C 161.609 80.958,166.449 79.271,169.800 78.372 C 171.340 77.959,172.873 77.461,173.206 77.266 C 173.540 77.070,175.520 76.599,177.606 76.218 C 179.693 75.838,181.760 75.373,182.200 75.185 C 186.425 73.382,216.962 73.381,221.000 75.183 C 221.440 75.379,223.600 75.847,225.800 76.221 C 228.000 76.596,229.890 77.016,230.000 77.154 C 230.110 77.293,231.550 77.742,233.200 78.152 C 234.850 78.562,236.380 79.031,236.600 79.194 C 236.820 79.357,238.080 79.813,239.400 80.207 C 245.702 82.091,261.631 90.345,266.600 94.303 C 266.820 94.478,267.630 95.064,268.400 95.605 C 269.170 96.146,270.070 96.801,270.400 97.060 C 279.686 104.359,289.322 113.887,296.027 122.400 C 297.154 123.830,298.413 125.401,298.826 125.890 C 299.239 126.380,300.077 127.529,300.689 128.444 C 301.300 129.359,302.101 130.559,302.469 131.111 C 302.837 131.663,303.287 132.224,303.469 132.357 C 303.651 132.491,304.237 133.410,304.770 134.400 C 305.304 135.390,305.864 136.290,306.014 136.400 C 306.165 136.510,306.609 137.230,307.000 138.000 C 307.391 138.770,307.834 139.490,307.984 139.600 C 308.256 139.799,312.425 147.342,313.733 150.000 C 314.112 150.770,314.582 151.670,314.777 152.000 C 315.109 152.562,315.778 153.992,318.709 160.400 C 319.363 161.830,320.025 163.585,320.181 164.300 C 320.336 165.015,320.601 165.600,320.768 165.600 C 320.936 165.600,321.408 166.725,321.817 168.100 C 322.227 169.475,322.694 170.694,322.857 170.809 C 323.020 170.924,323.545 172.454,324.025 174.209 C 324.505 175.964,325.030 177.490,325.192 177.600 C 325.354 177.710,325.793 179.190,326.168 180.888 C 326.542 182.586,327.091 184.476,327.386 185.088 C 327.682 185.700,328.141 187.550,328.407 189.200 C 328.674 190.850,329.055 192.403,329.255 192.652 C 329.642 193.134,331.238 202.652,332.265 210.600 C 333.481 220.012,333.009 251.417,331.605 254.600 C 331.410 255.040,330.954 258.100,330.590 261.400 C 330.226 264.700,329.754 268.120,329.540 269.000 C 329.326 269.880,328.799 272.490,328.370 274.800 C 327.940 277.110,327.427 279.360,327.229 279.800 C 327.031 280.240,326.549 281.950,326.158 283.600 C 325.767 285.250,325.321 286.780,325.167 287.000 C 325.013 287.220,324.487 288.840,324.000 290.600 C 323.513 292.360,322.975 293.980,322.805 294.200 C 322.635 294.420,322.188 295.680,321.810 297.000 C 321.433 298.320,320.977 299.580,320.798 299.800 C 320.618 300.020,320.169 301.370,319.799 302.799 C 319.429 304.228,318.997 305.488,318.838 305.599 C 318.561 305.792,317.504 309.019,316.970 311.300 C 316.829 311.905,316.586 312.400,316.430 312.400 C 316.274 312.400,315.827 313.435,315.437 314.700 C 315.047 315.965,314.294 317.934,313.764 319.075 C 313.234 320.217,312.800 321.432,312.800 321.775 C 312.800 322.119,312.620 322.400,312.400 322.400 C 312.180 322.400,312.000 322.602,312.000 322.848 C 312.000 323.402,308.399 330.924,308.001 331.200 C 307.843 331.310,307.339 332.210,306.881 333.200 C 305.908 335.303,303.908 338.911,303.556 339.200 C 303.422 339.310,303.021 339.968,302.665 340.662 C 302.310 341.356,301.783 342.166,301.494 342.462 C 301.206 342.758,300.653 343.675,300.266 344.500 C 299.879 345.325,299.424 346.000,299.255 346.000 C 299.086 346.000,298.519 347.035,297.995 348.300 C 297.471 349.565,295.379 353.075,293.346 356.100 L 289.650 361.600 297.779 361.600 L 305.908 361.600 309.112 356.300 C 314.729 347.011,328.788 320.058,331.802 312.800 C 332.396 311.370,333.326 309.120,333.870 307.800 C 336.646 301.054,343.834 280.109,345.332 274.400 C 352.609 246.663,354.082 214.525,349.226 189.407 C 333.296 107.001,264.914 48.139,192.400 54.415 M237.301 191.800 C 237.305 192.680,237.387 192.993,237.483 192.495 C 237.579 191.998,237.575 191.278,237.475 190.895 C 237.375 190.513,237.296 190.920,237.301 191.800 M181.701 325.400 C 181.705 326.280,181.787 326.593,181.883 326.095 C 181.979 325.598,181.975 324.878,181.875 324.495 C 181.775 324.113,181.696 324.520,181.701 325.400 M149.400 406.001 C 121.680 406.115,98.977 406.251,98.949 406.304 C 98.264 407.582,98.052 408.978,98.265 410.800 C 98.591 413.597,98.600 420.337,98.280 423.200 C 97.911 426.503,98.649 427.816,101.060 428.146 C 103.333 428.458,299.248 428.435,301.123 428.123 C 302.768 427.849,303.716 426.488,303.571 424.609 C 303.420 422.654,303.444 410.422,303.601 409.200 C 303.767 407.906,303.043 406.179,302.198 405.855 C 301.501 405.587,234.509 405.651,149.400 406.001 M127.500 436.032 C 126.365 436.693,126.434 457.376,127.574 457.986 C 128.099 458.267,151.433 458.400,200.192 458.400 L 272.036 458.400 273.018 457.418 L 274.000 456.436 274.000 446.818 C 274.000 437.733,273.956 437.156,273.200 436.400 C 272.283 435.483,129.064 435.121,127.500 436.032 M147.940 466.268 C 146.600 466.624,146.426 486.598,147.752 487.923 C 148.830 489.001,252.807 488.964,253.886 487.886 C 255.039 486.733,255.098 468.071,253.953 466.842 L 253.169 466.000 200.884 466.046 C 172.128 466.072,148.303 466.172,147.940 466.268 " stroke="none" fill="#b2cedf" fill-rule="evenodd"></path><path id="path2" d="M189.800 16.812 C 187.380 16.991,183.780 17.321,181.800 17.545 C 179.820 17.770,176.175 18.165,173.700 18.425 C 171.225 18.684,169.200 19.054,169.200 19.248 C 169.200 19.441,168.615 19.608,167.900 19.617 C 165.548 19.648,151.115 22.789,149.601 23.599 C 149.228 23.799,147.590 24.264,145.961 24.632 C 144.333 25.001,142.910 25.437,142.800 25.603 C 142.690 25.768,141.340 26.274,139.800 26.727 C 135.690 27.937,131.030 29.636,130.796 30.010 C 130.684 30.190,130.054 30.468,129.396 30.629 C 128.738 30.789,126.903 31.523,125.318 32.260 C 123.734 32.997,122.172 33.600,121.847 33.600 C 121.523 33.600,121.019 33.828,120.729 34.107 C 120.438 34.386,119.390 34.966,118.400 35.396 C 117.410 35.826,116.510 36.286,116.400 36.418 C 116.290 36.551,115.346 37.006,114.301 37.429 C 113.257 37.853,112.402 38.304,112.401 38.432 C 112.401 38.559,111.455 39.099,110.300 39.632 C 109.145 40.164,108.020 40.743,107.800 40.917 C 106.604 41.866,102.957 44.000,102.533 44.000 C 102.262 44.000,101.896 44.239,101.720 44.531 C 101.544 44.823,100.598 45.498,99.617 46.031 C 98.637 46.564,97.530 47.270,97.158 47.600 C 96.785 47.930,95.878 48.613,95.140 49.117 C 91.679 51.486,87.929 54.257,86.775 55.300 C 86.349 55.685,85.887 56.000,85.749 56.000 C 85.544 56.000,82.583 58.414,77.900 62.400 C 70.584 68.626,59.577 79.950,53.403 87.600 C 51.363 90.128,51.170 90.380,49.600 92.556 C 48.830 93.624,47.840 94.890,47.400 95.371 C 46.960 95.851,46.244 96.909,45.809 97.722 C 45.374 98.535,44.884 99.200,44.719 99.200 C 44.555 99.200,44.122 99.785,43.756 100.500 C 43.391 101.215,42.846 101.944,42.546 102.120 C 42.246 102.296,42.000 102.630,42.000 102.862 C 42.000 103.094,41.460 104.084,40.800 105.062 C 40.140 106.040,39.600 106.977,39.600 107.145 C 39.600 107.312,39.281 107.798,38.890 108.225 C 38.080 109.109,34.400 115.525,34.400 116.052 C 34.400 116.244,34.238 116.400,34.040 116.400 C 33.842 116.400,33.357 117.300,32.961 118.400 C 32.566 119.500,32.123 120.400,31.979 120.400 C 31.638 120.400,28.539 126.705,28.184 128.120 C 28.035 128.714,27.771 129.200,27.597 129.200 C 27.423 129.200,26.957 130.100,26.561 131.200 C 26.166 132.300,25.735 133.200,25.604 133.200 C 25.473 133.200,25.020 134.235,24.598 135.500 C 24.176 136.765,23.716 137.890,23.575 138.000 C 23.434 138.110,22.908 139.460,22.406 141.000 C 21.904 142.540,21.354 143.980,21.185 144.200 C 21.015 144.420,20.567 145.680,20.190 147.000 C 19.812 148.320,19.371 149.580,19.210 149.800 C 19.049 150.020,18.608 151.457,18.231 152.992 C 17.853 154.528,17.395 155.968,17.212 156.192 C 17.028 156.417,16.457 158.670,15.942 161.200 C 15.427 163.730,14.887 165.890,14.742 166.000 C 14.598 166.110,14.171 168.270,13.794 170.800 C 13.417 173.330,12.951 175.760,12.758 176.200 C 12.334 177.170,11.200 187.914,11.200 190.965 C 11.200 192.168,11.026 193.260,10.813 193.392 C 10.418 193.636,10.558 213.110,10.989 217.800 C 12.191 230.905,12.477 233.506,12.792 234.200 C 12.992 234.640,13.443 237.160,13.795 239.800 C 14.147 242.440,14.593 244.960,14.786 245.400 C 14.978 245.840,15.544 248.540,16.042 251.400 C 16.541 254.260,17.069 256.690,17.216 256.800 C 17.363 256.910,17.712 258.260,17.993 259.800 C 18.273 261.340,18.820 263.320,19.208 264.200 C 19.597 265.080,20.126 266.835,20.386 268.100 C 20.645 269.365,20.990 270.400,21.153 270.400 C 21.315 270.400,21.779 271.525,22.182 272.900 C 22.586 274.275,23.068 275.597,23.254 275.837 C 23.441 276.077,23.475 276.392,23.330 276.537 C 23.185 276.682,23.262 276.800,23.502 276.800 C 23.741 276.800,24.060 277.385,24.211 278.100 C 24.362 278.815,24.883 280.210,25.369 281.200 C 25.855 282.190,26.489 283.855,26.778 284.900 C 27.067 285.945,27.437 286.800,27.600 286.800 C 27.763 286.800,28.129 287.655,28.414 288.700 C 28.700 289.745,29.331 291.500,29.817 292.600 C 30.303 293.700,30.917 295.275,31.181 296.100 C 31.446 296.925,31.828 297.600,32.031 297.600 C 32.234 297.600,32.400 297.881,32.400 298.224 C 32.400 299.357,37.947 310.790,38.500 310.797 C 38.665 310.798,38.800 310.989,38.800 311.219 C 38.800 311.850,40.116 314.352,44.700 322.437 C 45.855 324.474,46.800 326.289,46.800 326.470 C 46.800 326.652,46.966 326.800,47.169 326.800 C 47.372 326.800,47.745 327.429,47.999 328.197 C 48.253 328.965,48.682 329.730,48.953 329.897 C 49.225 330.064,49.690 330.800,49.986 331.534 C 50.283 332.268,50.730 333.078,50.980 333.334 C 51.402 333.767,52.525 335.657,54.525 339.300 C 54.978 340.125,55.495 340.800,55.674 340.800 C 55.853 340.800,56.000 340.963,56.000 341.162 C 56.000 341.362,56.945 343.082,58.100 344.985 C 59.255 346.888,60.507 349.004,60.881 349.687 C 61.256 350.371,61.726 351.036,61.925 351.165 C 62.125 351.294,62.607 352.021,62.996 352.780 C 63.385 353.540,63.955 354.412,64.261 354.718 C 64.568 355.025,65.089 355.799,65.420 356.438 C 65.750 357.077,66.175 357.600,66.364 357.600 C 66.552 357.600,66.812 357.915,66.942 358.300 C 67.208 359.092,67.967 360.311,68.681 361.093 C 69.050 361.497,70.707 361.594,75.788 361.510 L 82.413 361.400 81.100 359.400 C 70.846 343.783,54.861 314.675,49.798 302.400 C 46.009 293.215,39.620 275.875,37.861 270.000 C 26.502 232.081,27.046 189.593,39.335 154.800 C 68.813 71.344,147.080 22.202,228.833 35.818 C 240.220 37.715,250.700 40.579,260.600 44.501 C 262.800 45.372,265.483 46.436,266.563 46.865 C 312.198 64.989,353.952 114.683,368.004 167.600 C 377.310 202.642,374.960 245.640,361.807 281.000 C 361.070 282.980,359.537 287.120,358.400 290.200 C 353.515 303.431,350.461 310.080,342.562 324.687 C 335.139 338.415,327.496 351.587,323.523 357.501 C 320.523 361.967,320.160 361.600,327.571 361.600 L 334.027 361.600 334.853 360.200 C 335.307 359.430,335.814 358.800,335.979 358.800 C 336.144 358.800,336.603 358.080,337.000 357.200 C 337.397 356.320,337.877 355.600,338.067 355.600 C 338.257 355.600,338.713 354.970,339.081 354.200 C 339.448 353.430,339.859 352.800,339.995 352.800 C 340.131 352.800,340.683 351.903,341.221 350.806 C 341.760 349.710,342.327 348.810,342.481 348.806 C 342.636 348.803,343.061 348.170,343.427 347.400 C 343.792 346.630,344.251 346.000,344.446 346.000 C 344.641 346.000,344.800 345.835,344.800 345.633 C 344.800 345.431,345.610 343.896,346.600 342.222 C 347.590 340.547,348.400 339.002,348.400 338.788 C 348.400 338.575,348.547 338.400,348.726 338.400 C 348.905 338.400,349.361 337.815,349.739 337.100 C 350.117 336.385,351.037 334.810,351.783 333.600 C 352.529 332.390,353.557 330.590,354.069 329.600 C 354.581 328.610,355.109 327.710,355.244 327.600 C 355.378 327.490,355.809 326.770,356.200 326.000 C 356.591 325.230,357.023 324.510,357.160 324.400 C 357.296 324.290,357.766 323.483,358.204 322.606 C 358.642 321.729,359.209 320.788,359.464 320.513 C 359.719 320.239,360.239 319.201,360.618 318.207 C 360.998 317.213,361.437 316.400,361.594 316.400 C 361.750 316.400,362.218 315.635,362.632 314.700 C 363.047 313.765,363.603 312.773,363.869 312.496 C 364.134 312.218,364.578 311.363,364.856 310.596 C 365.134 309.828,365.484 309.200,365.634 309.200 C 365.784 309.200,366.322 308.165,366.829 306.900 C 367.336 305.635,367.866 304.510,368.008 304.400 C 368.150 304.290,368.602 303.255,369.012 302.100 C 369.422 300.945,369.883 300.000,370.036 300.000 C 370.188 300.000,370.428 299.543,370.568 298.985 C 370.708 298.427,371.341 296.840,371.974 295.458 C 372.607 294.076,373.358 292.147,373.643 291.172 C 373.928 290.198,374.269 289.310,374.401 289.200 C 374.533 289.090,374.964 288.100,375.359 287.000 C 375.753 285.900,376.387 284.280,376.766 283.400 C 377.145 282.520,377.705 280.990,378.011 280.000 C 378.316 279.010,378.682 278.110,378.824 278.000 C 378.966 277.890,379.402 276.810,379.794 275.600 C 380.185 274.390,380.638 273.220,380.800 273.000 C 380.962 272.780,381.404 271.610,381.782 270.400 C 382.161 269.190,382.719 267.644,383.024 266.964 C 383.328 266.284,383.885 264.304,384.262 262.564 C 384.639 260.824,385.069 259.310,385.218 259.200 C 385.368 259.090,385.791 257.290,386.160 255.200 C 386.528 253.110,386.998 251.040,387.203 250.600 C 387.408 250.160,387.934 247.550,388.371 244.800 C 388.808 242.050,389.426 238.450,389.744 236.800 C 390.062 235.150,390.536 231.640,390.796 229.000 C 391.057 226.360,391.431 223.840,391.629 223.400 C 392.737 220.932,392.738 185.935,391.630 185.206 C 391.458 185.093,391.193 183.560,391.042 181.800 C 390.677 177.555,389.651 170.801,389.219 169.800 C 389.029 169.360,388.566 167.290,388.189 165.200 C 387.812 163.110,387.369 161.220,387.204 161.000 C 387.038 160.780,386.589 159.160,386.205 157.400 C 385.820 155.640,385.375 154.110,385.215 154.000 C 385.056 153.890,384.517 152.135,384.018 150.100 C 383.519 148.065,382.990 146.400,382.843 146.400 C 382.695 146.400,382.330 145.545,382.032 144.500 C 381.733 143.455,381.154 141.845,380.744 140.922 C 380.335 139.999,380.000 139.149,380.000 139.032 C 380.000 138.915,379.460 137.641,378.800 136.200 C 378.140 134.759,377.600 133.421,377.600 133.227 C 377.600 132.595,368.378 114.604,367.983 114.467 C 367.773 114.393,367.600 114.119,367.600 113.858 C 367.600 113.596,366.970 112.425,366.200 111.256 C 365.430 110.087,364.800 109.051,364.800 108.955 C 364.800 108.705,358.044 98.438,356.934 97.000 C 356.424 96.340,355.742 95.440,355.418 95.000 C 354.188 93.330,349.545 87.366,348.887 86.611 C 348.509 86.178,347.930 85.441,347.600 84.974 C 345.833 82.475,331.694 67.822,328.327 65.000 C 325.946 63.004,322.555 60.146,321.920 59.600 C 321.537 59.270,320.723 58.597,320.112 58.104 C 319.500 57.611,318.460 56.761,317.800 56.215 C 316.600 55.222,313.383 52.862,310.860 51.124 C 310.122 50.616,309.187 49.895,308.781 49.521 C 308.375 49.148,307.448 48.538,306.721 48.165 C 305.995 47.793,305.310 47.367,305.200 47.218 C 304.881 46.786,300.707 44.113,299.500 43.568 C 298.895 43.295,298.400 42.948,298.400 42.797 C 298.400 42.645,297.635 42.182,296.700 41.766 C 295.765 41.350,294.680 40.720,294.290 40.366 C 293.899 40.011,292.864 39.485,291.990 39.197 C 291.115 38.908,290.400 38.545,290.400 38.390 C 290.400 38.235,289.545 37.786,288.500 37.392 C 287.455 36.998,286.456 36.434,286.280 36.138 C 286.104 35.842,285.725 35.600,285.436 35.600 C 285.148 35.600,283.936 35.079,282.742 34.442 C 281.548 33.805,279.813 33.056,278.886 32.778 C 277.959 32.501,277.200 32.127,277.200 31.948 C 277.200 31.769,276.165 31.323,274.900 30.958 C 273.635 30.593,272.510 30.164,272.400 30.006 C 272.290 29.848,271.210 29.398,270.000 29.006 C 268.790 28.615,267.620 28.161,267.400 27.998 C 267.180 27.835,265.560 27.289,263.800 26.784 C 262.040 26.279,260.420 25.742,260.200 25.590 C 259.980 25.438,258.540 24.997,257.000 24.610 C 255.460 24.223,253.660 23.679,253.000 23.401 C 252.340 23.123,250.540 22.671,249.000 22.395 C 247.460 22.120,246.020 21.756,245.800 21.587 C 245.580 21.418,242.970 20.882,240.000 20.397 C 237.030 19.912,234.240 19.358,233.800 19.167 C 232.802 18.734,222.921 17.601,220.133 17.600 C 218.997 17.600,218.007 17.424,217.933 17.208 C 217.758 16.694,195.621 16.382,189.800 16.812 M94.800 383.600 L 94.800 400.000 108.700 400.000 L 122.600 400.000 122.491 383.600 L 122.383 367.200 108.591 367.200 L 94.800 367.200 94.800 383.600 M157.909 383.600 L 157.800 400.000 171.743 400.000 C 184.292 400.000,185.661 399.937,185.443 399.367 C 185.309 399.019,185.200 391.639,185.200 382.967 L 185.200 367.200 171.609 367.200 L 158.017 367.200 157.909 383.600 M220.800 383.600 L 220.800 400.000 234.700 400.000 L 248.600 400.000 248.491 383.600 L 248.383 367.200 234.591 367.200 L 220.800 367.200 220.800 383.600 M283.909 383.600 L 283.800 400.000 295.844 400.000 C 302.468 400.000,308.723 399.886,309.744 399.746 L 311.600 399.491 311.600 383.346 L 311.600 367.200 297.809 367.200 L 284.017 367.200 283.909 383.600 " stroke="none" fill="#1c74bc" fill-rule="evenodd"></path><path id="path3" d="M293.288 151.766 C 293.046 152.297,292.440 156.122,291.941 160.266 C 291.441 164.410,290.924 167.890,290.792 168.000 C 290.659 168.110,290.222 171.080,289.821 174.600 C 289.420 178.120,288.960 181.180,288.800 181.400 C 288.640 181.620,288.191 184.590,287.804 188.000 C 287.416 191.410,286.963 194.560,286.797 195.000 C 286.632 195.440,286.075 199.220,285.560 203.400 C 285.045 207.580,284.515 211.090,284.382 211.200 C 284.249 211.310,283.813 214.280,283.412 217.800 C 283.011 221.320,282.556 224.380,282.399 224.600 C 282.243 224.820,281.803 227.790,281.422 231.200 C 281.041 234.610,280.579 237.881,280.396 238.469 C 280.213 239.057,279.676 242.747,279.203 246.669 C 278.729 250.591,278.186 254.160,277.996 254.600 C 277.805 255.040,277.341 258.100,276.965 261.400 C 276.588 264.700,276.149 267.580,275.988 267.800 C 275.828 268.020,275.298 271.620,274.811 275.800 C 274.324 279.980,273.772 283.760,273.585 284.200 C 273.397 284.640,272.952 287.700,272.596 291.000 C 272.240 294.300,271.791 297.360,271.598 297.800 C 271.405 298.240,270.953 301.390,270.593 304.800 C 270.233 308.210,269.782 311.360,269.592 311.800 C 269.402 312.240,268.839 316.110,268.341 320.400 C 267.843 324.690,267.320 328.290,267.178 328.400 C 267.037 328.510,266.590 331.480,266.185 335.000 C 265.780 338.520,265.328 341.490,265.178 341.600 C 265.029 341.710,264.593 344.680,264.209 348.200 C 263.824 351.720,263.350 354.799,263.155 355.041 C 262.960 355.284,262.683 356.861,262.541 358.546 L 262.282 361.611 276.022 361.505 L 289.763 361.400 292.918 356.800 C 296.236 351.963,298.798 347.178,298.802 345.811 C 298.804 345.365,299.075 344.481,299.406 343.848 C 299.736 343.214,300.280 341.517,300.614 340.075 C 300.949 338.634,301.378 337.263,301.569 337.028 C 301.760 336.792,302.214 335.070,302.578 333.200 C 302.941 331.330,303.402 329.440,303.601 329.000 C 303.800 328.560,304.336 326.220,304.793 323.800 C 305.249 321.380,305.768 319.130,305.946 318.800 C 306.124 318.470,306.601 316.760,307.008 315.000 C 307.414 313.240,307.866 311.710,308.012 311.600 C 308.158 311.490,308.600 310.050,308.994 308.400 C 309.387 306.750,309.846 305.220,310.014 305.000 C 310.181 304.780,310.705 302.620,311.178 300.200 C 311.651 297.780,312.200 295.440,312.399 295.000 C 312.598 294.560,313.049 292.670,313.400 290.800 C 313.751 288.930,314.201 287.040,314.399 286.600 C 314.596 286.160,315.061 284.360,315.431 282.600 C 315.800 280.840,316.243 279.220,316.414 279.000 C 316.585 278.780,317.124 276.710,317.612 274.400 C 318.100 272.090,318.628 270.020,318.785 269.800 C 318.942 269.580,319.396 267.780,319.793 265.800 C 320.190 263.820,320.652 262.020,320.820 261.800 C 320.987 261.580,321.438 259.780,321.821 257.800 C 322.205 255.820,322.653 254.020,322.818 253.800 C 322.983 253.580,323.505 251.420,323.978 249.000 C 324.451 246.580,325.008 244.240,325.216 243.800 C 325.425 243.360,325.872 241.659,326.209 240.020 C 326.547 238.381,327.070 236.311,327.372 235.420 C 327.674 234.529,328.239 232.180,328.627 230.200 C 329.015 228.220,329.453 226.510,329.600 226.400 C 329.982 226.114,331.201 219.676,331.200 217.949 C 331.200 216.281,330.333 213.974,329.423 213.219 C 329.080 212.935,328.800 212.541,328.800 212.343 C 328.800 212.146,328.307 211.223,327.705 210.292 C 327.102 209.361,326.370 208.150,326.078 207.600 C 325.787 207.050,324.937 205.520,324.190 204.200 C 323.444 202.880,322.440 200.990,321.960 200.000 C 321.479 199.010,320.977 198.110,320.843 198.000 C 320.619 197.815,319.662 196.012,317.889 192.434 C 317.499 191.646,317.005 190.730,316.792 190.400 C 316.579 190.070,316.006 188.990,315.519 188.000 C 315.031 187.010,314.400 185.962,314.116 185.671 C 313.832 185.381,313.600 184.920,313.600 184.647 C 313.600 184.374,313.263 183.790,312.852 183.348 C 312.441 182.907,311.862 181.875,311.565 181.055 C 311.269 180.235,310.744 179.258,310.398 178.882 C 310.053 178.507,309.514 177.570,309.200 176.800 C 308.886 176.030,308.213 174.783,307.704 174.029 C 307.196 173.275,306.675 172.240,306.546 171.729 C 306.418 171.218,306.177 170.800,306.011 170.800 C 305.845 170.800,305.386 169.945,304.992 168.900 C 304.598 167.855,303.943 166.571,303.538 166.046 C 303.132 165.521,302.800 164.958,302.800 164.795 C 302.800 164.503,300.332 160.189,299.713 159.400 C 299.541 159.180,298.964 158.100,298.432 157.000 C 297.900 155.900,297.350 154.910,297.210 154.800 C 297.069 154.690,296.712 154.000,296.415 153.266 C 295.391 150.738,294.050 150.094,293.288 151.766 M170.339 156.461 C 169.576 157.224,169.518 157.601,169.741 160.353 C 169.877 162.029,170.096 165.470,170.227 168.000 C 170.359 170.530,170.572 172.870,170.701 173.200 C 170.830 173.530,170.971 175.060,171.015 176.600 C 171.148 181.316,171.477 181.745,173.946 180.419 C 174.745 179.989,176.296 179.348,177.390 178.993 C 178.485 178.638,179.565 178.200,179.790 178.018 C 180.016 177.836,181.640 177.385,183.400 177.016 C 185.160 176.646,186.960 176.180,187.400 175.980 C 190.734 174.462,210.019 174.458,213.400 175.974 C 213.840 176.172,215.775 176.646,217.700 177.029 C 219.625 177.412,221.200 177.838,221.200 177.975 C 221.200 178.113,222.055 178.466,223.100 178.759 C 224.145 179.053,226.088 179.809,227.419 180.440 C 228.749 181.071,230.392 181.698,231.068 181.834 L 232.299 182.080 232.592 175.437 C 232.754 171.784,233.028 168.706,233.203 168.598 C 234.096 168.046,233.653 158.163,232.715 157.699 C 232.090 157.390,224.940 157.163,210.200 156.981 C 198.320 156.835,188.420 156.579,188.200 156.412 C 187.064 155.551,171.206 155.594,170.339 156.461 M193.210 177.208 C 191.345 177.402,189.455 177.735,189.010 177.946 C 188.564 178.157,186.580 178.633,184.600 179.003 C 182.620 179.373,180.820 179.819,180.600 179.993 C 180.380 180.167,179.165 180.633,177.900 181.028 C 176.635 181.423,175.600 181.912,175.600 182.116 C 175.600 182.319,175.330 182.382,175.000 182.255 C 174.670 182.129,174.400 182.194,174.400 182.401 C 174.400 182.608,173.815 182.932,173.100 183.121 L 171.800 183.466 171.864 186.163 C 171.932 189.076,172.103 189.533,172.890 188.913 C 173.171 188.693,174.300 188.183,175.400 187.780 C 176.500 187.377,177.760 186.833,178.200 186.571 C 178.640 186.309,180.350 185.778,182.000 185.392 C 183.650 185.007,185.180 184.552,185.400 184.383 C 187.859 182.495,210.688 182.480,215.000 184.365 C 215.440 184.557,217.148 185.019,218.795 185.390 C 220.442 185.762,222.547 186.411,223.473 186.833 C 224.399 187.255,225.284 187.600,225.439 187.600 C 225.595 187.600,226.640 188.033,227.761 188.562 C 231.425 190.290,231.865 190.039,231.960 186.171 L 232.000 184.542 228.454 182.890 C 226.504 181.982,224.029 181.024,222.954 180.762 C 221.879 180.499,220.794 180.124,220.542 179.928 C 220.291 179.732,218.401 179.228,216.342 178.807 C 214.284 178.387,211.880 177.860,211.000 177.637 C 208.735 177.064,197.246 176.786,193.210 177.208 M111.565 181.500 C 110.370 182.797,107.424 185.484,104.437 188.000 C 103.262 188.990,102.008 190.092,101.650 190.448 C 101.137 190.960,93.072 197.809,88.600 201.530 C 81.674 207.294,78.635 209.936,74.489 213.800 L 71.913 216.200 72.146 218.746 C 72.274 220.146,72.540 221.496,72.738 221.746 C 72.935 221.996,73.410 223.640,73.792 225.400 C 74.174 227.160,74.622 228.780,74.788 229.000 C 74.953 229.220,75.412 231.110,75.806 233.200 C 76.201 235.290,76.646 237.090,76.795 237.200 C 76.943 237.310,77.472 239.470,77.970 242.000 C 78.469 244.530,79.011 246.780,79.176 247.000 C 79.341 247.220,79.795 248.930,80.186 250.800 C 80.576 252.670,81.009 254.380,81.148 254.600 C 81.287 254.820,81.802 256.800,82.294 259.000 C 82.786 261.200,83.280 263.270,83.392 263.600 C 83.504 263.930,83.991 265.910,84.476 268.000 C 84.960 270.090,85.471 271.890,85.612 272.000 C 85.752 272.110,86.185 273.820,86.573 275.800 C 86.961 277.780,87.395 279.580,87.537 279.800 C 87.772 280.164,88.452 282.936,90.875 293.400 C 91.334 295.380,91.824 297.090,91.966 297.200 C 92.107 297.310,92.550 299.005,92.950 300.967 C 93.350 302.929,93.832 304.819,94.021 305.167 C 94.210 305.515,94.754 307.690,95.230 310.000 C 95.707 312.310,96.228 314.380,96.389 314.600 C 96.550 314.820,96.995 316.620,97.379 318.600 C 97.762 320.580,98.220 322.380,98.396 322.600 C 98.572 322.820,99.025 324.530,99.403 326.400 C 99.781 328.270,100.219 329.890,100.377 330.000 C 100.535 330.110,101.072 332.270,101.570 334.800 C 102.069 337.330,102.613 339.580,102.781 339.800 C 102.948 340.020,103.304 341.370,103.572 342.800 C 104.249 346.422,105.433 348.835,109.518 354.922 C 111.467 357.825,113.176 360.515,113.318 360.900 C 113.556 361.549,114.619 361.600,127.843 361.600 L 142.110 361.600 141.842 359.315 C 141.694 358.059,141.429 356.934,141.253 356.815 C 141.077 356.697,140.612 354.890,140.219 352.800 C 139.827 350.710,139.364 348.640,139.192 348.200 C 139.019 347.760,138.488 344.108,138.013 340.085 C 137.537 336.061,136.991 332.281,136.800 331.685 C 136.609 331.088,136.163 327.990,135.810 324.800 C 135.457 321.610,135.005 318.640,134.806 318.200 C 134.607 317.760,134.152 314.700,133.796 311.400 C 133.440 308.100,132.996 305.040,132.810 304.600 C 132.624 304.160,132.178 301.100,131.819 297.800 C 131.460 294.500,130.905 290.540,130.586 289.000 C 130.267 287.460,129.649 283.500,129.214 280.200 C 128.190 272.444,126.514 261.000,126.402 261.000 C 126.322 261.000,125.475 255.139,123.049 237.800 C 122.557 234.280,122.042 231.130,121.905 230.800 C 121.768 230.470,121.252 226.780,120.759 222.600 C 120.265 218.420,119.748 214.910,119.611 214.800 C 119.473 214.690,119.044 211.932,118.658 208.670 C 118.272 205.409,117.800 202.349,117.610 201.870 C 117.420 201.392,116.959 198.300,116.585 195.000 C 116.212 191.700,115.769 188.820,115.602 188.600 C 115.434 188.380,115.178 186.940,115.032 185.400 C 114.605 180.899,114.448 180.400,113.457 180.400 C 112.974 180.400,112.122 180.895,111.565 181.500 M191.021 185.627 C 189.493 185.804,187.873 186.120,187.421 186.328 C 186.970 186.536,185.160 187.019,183.400 187.401 C 181.640 187.782,179.445 188.433,178.522 188.847 C 177.599 189.261,176.716 189.600,176.561 189.600 C 176.405 189.600,175.326 190.050,174.165 190.599 L 172.052 191.599 172.255 195.099 C 172.367 197.025,172.620 200.670,172.818 203.200 C 173.016 205.730,173.555 213.110,174.015 219.600 C 174.475 226.090,175.005 231.760,175.194 232.200 C 175.382 232.640,175.934 240.560,176.420 249.800 C 177.394 268.326,177.332 267.466,177.722 267.855 C 177.875 268.008,177.997 269.138,177.992 270.367 C 177.978 274.419,179.336 296.596,179.611 296.800 C 179.759 296.910,179.998 299.250,180.142 302.000 C 180.286 304.750,180.505 308.350,180.628 310.000 C 180.993 314.908,181.584 322.430,181.805 325.000 C 181.919 326.320,182.365 333.160,182.795 340.200 C 183.225 347.240,183.642 354.035,183.722 355.300 C 183.801 356.565,183.986 357.720,184.133 357.866 C 184.280 358.013,184.400 358.913,184.400 359.867 L 184.400 361.600 201.571 361.600 C 221.744 361.600,220.000 362.057,220.000 356.771 C 220.000 354.807,220.148 353.200,220.330 353.200 C 220.511 353.200,220.971 346.945,221.350 339.300 C 221.730 331.655,222.207 324.770,222.411 324.000 C 222.614 323.230,223.149 316.210,223.599 308.400 C 224.049 300.590,224.517 293.030,224.639 291.600 C 224.760 290.170,225.251 282.790,225.730 275.200 C 226.208 267.610,226.705 261.220,226.834 261.000 C 226.962 260.780,227.114 259.700,227.171 258.600 C 227.486 252.552,228.820 231.994,228.976 230.800 C 229.077 230.030,229.543 221.660,230.012 212.200 C 230.481 202.740,231.052 194.612,231.280 194.138 C 231.508 193.664,231.571 193.077,231.421 192.834 C 230.700 191.667,221.022 188.014,216.400 187.164 C 214.970 186.901,213.619 186.546,213.399 186.376 C 212.113 185.383,197.378 184.891,191.021 185.627 M237.993 188.619 C 237.759 189.233,237.491 190.920,237.397 192.368 C 237.303 193.815,237.044 197.250,236.822 200.000 C 236.600 202.750,236.414 206.268,236.409 207.817 L 236.400 210.635 243.500 210.617 C 252.138 210.596,261.612 212.334,264.205 214.415 C 264.428 214.594,265.643 215.126,266.905 215.599 C 268.167 216.071,269.200 216.605,269.200 216.785 C 269.200 216.966,269.885 217.387,270.723 217.722 C 271.560 218.057,272.482 218.617,272.772 218.966 C 273.061 219.315,273.484 219.600,273.711 219.600 C 273.939 219.600,274.714 220.050,275.436 220.600 C 276.932 221.741,277.600 221.865,277.600 221.000 C 277.600 220.670,277.744 220.400,277.921 220.400 C 278.097 220.400,278.661 217.295,279.174 213.500 C 279.686 209.705,280.262 206.429,280.453 206.220 C 280.931 205.696,280.891 204.000,280.400 204.000 C 280.180 204.000,280.000 203.680,280.000 203.289 C 280.000 202.303,278.790 201.364,276.533 200.598 C 275.481 200.241,274.435 199.799,274.210 199.616 C 273.984 199.433,272.554 198.901,271.031 198.434 C 269.508 197.966,268.068 197.426,267.831 197.235 C 267.594 197.043,266.230 196.569,264.800 196.180 C 263.370 195.792,262.020 195.340,261.800 195.175 C 261.580 195.010,260.320 194.563,259.000 194.181 C 257.680 193.799,256.240 193.266,255.800 192.996 C 255.360 192.726,253.785 192.169,252.300 191.758 C 250.815 191.347,249.600 190.880,249.600 190.720 C 249.600 190.561,248.835 190.226,247.900 189.976 C 246.965 189.726,245.390 189.149,244.400 188.694 C 241.336 187.287,238.512 187.253,237.993 188.619 M239.400 211.966 C 236.005 212.609,236.146 212.405,235.859 217.093 C 235.716 219.421,235.600 222.286,235.600 223.462 C 235.600 224.638,235.456 225.600,235.280 225.600 C 234.994 225.600,233.567 249.575,233.591 254.000 L 233.600 255.800 240.100 255.809 C 246.089 255.817,252.305 256.488,252.800 257.179 C 252.910 257.332,254.170 257.780,255.600 258.173 C 257.030 258.566,259.317 259.408,260.683 260.044 C 262.049 260.680,263.354 261.200,263.583 261.200 C 263.812 261.200,264.000 261.358,264.000 261.551 C 264.000 261.744,264.900 262.289,266.000 262.762 C 267.100 263.235,268.000 263.768,268.000 263.947 C 268.000 264.337,269.803 265.200,270.619 265.200 C 271.025 265.200,271.200 264.743,271.200 263.680 C 271.200 262.844,271.355 261.989,271.545 261.780 C 271.735 261.571,272.213 259.060,272.608 256.200 C 273.003 253.340,273.469 250.813,273.643 250.584 C 273.817 250.355,274.344 246.665,274.815 242.384 C 275.286 238.103,275.827 234.240,276.018 233.800 C 276.418 232.877,277.208 226.471,277.177 224.400 C 277.156 223.018,274.401 220.659,271.429 219.480 C 270.985 219.304,270.528 219.022,270.411 218.852 C 270.126 218.437,266.667 216.800,266.074 216.800 C 265.813 216.800,265.600 216.648,265.600 216.463 C 265.600 216.278,264.475 215.792,263.100 215.383 C 261.725 214.973,260.499 214.495,260.377 214.319 C 260.254 214.144,258.634 213.717,256.777 213.371 C 254.919 213.024,253.082 212.571,252.693 212.363 C 251.783 211.876,241.496 211.568,239.400 211.966 M311.600 214.294 C 311.600 215.702,310.267 223.822,310.007 224.000 C 309.847 224.110,309.411 226.270,309.039 228.800 C 308.666 231.330,308.201 233.760,308.004 234.200 C 307.808 234.640,307.284 237.070,306.841 239.600 C 304.314 254.024,304.672 252.931,302.680 252.320 C 301.321 251.903,300.384 250.000,301.537 250.000 C 301.722 250.000,302.195 247.795,302.588 245.100 C 302.981 242.405,303.433 240.020,303.593 239.800 C 303.753 239.580,304.285 236.790,304.776 233.600 C 305.267 230.410,305.824 227.440,306.014 227.000 C 306.205 226.560,306.666 224.220,307.040 221.800 C 307.413 219.380,307.850 217.220,308.009 217.000 C 308.169 216.780,308.420 215.764,308.568 214.743 L 308.836 212.886 310.218 213.310 C 310.978 213.543,311.600 213.986,311.600 214.294 M205.527 215.071 C 207.695 216.834,208.768 218.012,208.787 218.651 C 208.794 218.899,209.056 219.315,209.370 219.575 C 210.104 220.184,212.166 224.479,212.839 226.800 C 213.126 227.790,213.460 228.690,213.581 228.800 C 213.874 229.068,213.983 229.509,214.965 234.400 C 215.429 236.710,215.921 238.780,216.059 239.000 C 217.404 241.144,217.853 267.115,216.671 274.400 C 215.043 284.432,211.707 295.205,209.609 297.200 C 209.493 297.310,209.140 297.903,208.823 298.517 C 207.157 301.747,202.673 304.380,199.867 303.776 C 197.924 303.358,194.400 301.065,194.400 300.220 C 194.400 300.100,193.793 299.146,193.050 298.101 C 192.308 297.055,191.462 295.525,191.170 294.700 C 190.878 293.875,190.515 293.200,190.364 293.200 C 190.213 293.200,189.772 292.030,189.385 290.600 C 188.998 289.170,188.552 288.000,188.393 288.000 C 188.234 288.000,187.999 287.415,187.869 286.700 C 187.739 285.985,187.251 283.690,186.785 281.600 C 184.335 270.631,183.766 251.208,185.602 241.280 C 186.510 236.371,188.105 229.380,188.357 229.200 C 188.512 229.090,188.870 228.190,189.153 227.200 C 189.774 225.029,192.316 219.602,192.715 219.595 C 192.872 219.593,193.344 218.873,193.764 217.995 C 194.185 217.118,194.635 216.399,194.764 216.398 C 194.894 216.397,195.579 215.854,196.287 215.190 C 199.029 212.620,202.458 212.575,205.527 215.071 M108.357 220.700 C 108.769 222.728,108.746 223.047,108.163 223.400 C 107.799 223.620,106.938 224.167,106.250 224.615 C 105.563 225.063,104.370 225.675,103.600 225.976 C 102.830 226.277,102.009 226.754,101.776 227.035 C 101.542 227.316,100.552 227.855,99.576 228.234 C 98.599 228.612,97.440 229.225,97.000 229.596 C 96.560 229.967,95.570 230.514,94.800 230.813 C 94.030 231.111,93.310 231.465,93.200 231.601 C 93.090 231.736,91.793 232.516,90.318 233.333 L 87.636 234.819 87.260 233.310 C 86.360 229.694,86.290 229.863,89.200 228.622 C 90.190 228.200,91.180 227.659,91.400 227.420 C 91.620 227.181,92.610 226.633,93.600 226.203 C 94.590 225.774,95.490 225.314,95.600 225.182 C 95.930 224.786,105.527 219.600,105.930 219.600 C 106.134 219.600,106.526 219.330,106.800 219.000 C 107.618 218.015,107.866 218.286,108.357 220.700 M110.591 229.100 C 110.745 229.925,111.062 230.831,111.295 231.113 C 111.830 231.760,111.189 232.254,107.200 234.264 C 105.550 235.096,104.106 235.905,103.992 236.063 C 103.877 236.221,103.337 236.539,102.792 236.770 C 102.246 237.001,100.720 237.817,99.400 238.582 C 98.080 239.348,96.190 240.389,95.200 240.896 C 94.210 241.402,92.950 242.114,92.400 242.477 C 90.360 243.823,89.894 243.615,89.387 241.131 C 88.982 239.147,89.004 238.830,89.562 238.617 C 89.913 238.483,91.280 237.762,92.600 237.015 C 93.920 236.268,95.806 235.273,96.792 234.803 C 97.778 234.334,98.678 233.801,98.792 233.620 C 98.906 233.438,99.630 232.993,100.400 232.631 C 102.960 231.425,105.797 229.919,106.000 229.658 C 106.216 229.379,109.635 227.666,110.055 227.625 C 110.196 227.611,110.437 228.275,110.591 229.100 M112.973 237.700 C 114.387 240.709,113.791 241.311,105.300 245.438 C 104.145 245.999,103.200 246.589,103.200 246.749 C 103.200 246.909,102.525 247.281,101.700 247.576 C 100.875 247.871,100.110 248.246,100.000 248.408 C 99.787 248.723,92.987 252.400,92.618 252.400 C 92.498 252.400,92.400 252.076,92.400 251.680 C 92.400 251.284,92.243 250.789,92.052 250.580 C 91.149 249.595,91.169 247.993,92.091 247.561 C 92.591 247.327,94.080 246.524,95.400 245.777 C 96.720 245.029,98.610 244.009,99.600 243.509 C 100.590 243.009,101.490 242.500,101.600 242.377 C 101.710 242.254,103.870 241.030,106.400 239.656 C 108.930 238.282,111.270 236.998,111.600 236.803 C 111.930 236.607,112.237 236.436,112.281 236.424 C 112.326 236.411,112.637 236.985,112.973 237.700 M299.326 238.001 C 300.460 238.567,300.628 241.683,299.597 243.000 C 299.425 243.220,298.871 246.100,298.365 249.400 C 297.860 252.700,297.327 255.490,297.181 255.600 C 297.035 255.710,296.611 257.870,296.239 260.400 C 295.866 262.930,295.401 265.360,295.204 265.800 C 294.859 266.573,294.319 269.432,292.107 282.200 C 291.535 285.500,290.948 288.290,290.803 288.400 C 290.658 288.510,290.212 290.850,289.813 293.600 C 289.414 296.350,288.960 298.690,288.804 298.800 C 288.649 298.910,288.135 301.250,287.663 304.000 C 286.390 311.422,284.578 320.916,284.306 321.600 C 284.174 321.930,283.956 323.010,283.820 324.000 C 283.049 329.632,282.729 330.800,281.959 330.800 C 281.542 330.800,281.200 330.641,281.200 330.447 C 281.200 330.252,280.818 329.993,280.351 329.871 C 279.494 329.647,279.519 325.377,280.380 324.800 C 280.544 324.690,280.998 322.440,281.389 319.800 C 281.779 317.160,282.231 314.820,282.393 314.600 C 282.555 314.380,282.997 312.130,283.376 309.600 C 283.755 307.070,284.226 304.640,284.423 304.200 C 284.620 303.760,285.150 300.970,285.601 298.000 C 286.052 295.030,286.570 292.329,286.752 291.999 C 286.934 291.668,287.407 289.238,287.802 286.599 C 288.198 283.959,288.639 281.710,288.783 281.600 C 288.926 281.490,289.373 279.240,289.774 276.600 C 290.176 273.960,290.637 271.620,290.800 271.400 C 290.962 271.180,291.504 268.300,292.006 265.000 C 292.507 261.700,293.038 258.910,293.185 258.800 C 293.332 258.690,293.789 256.350,294.200 253.600 C 294.611 250.850,295.066 248.510,295.210 248.400 C 295.355 248.290,295.787 246.130,296.170 243.600 C 296.833 239.216,297.437 237.103,297.960 237.333 C 298.092 237.390,298.707 237.691,299.326 238.001 M237.800 257.200 C 237.664 257.420,236.498 257.600,235.208 257.600 L 232.864 257.600 232.626 260.100 C 232.431 262.157,231.436 278.314,231.019 286.200 C 230.961 287.300,230.803 289.100,230.668 290.200 C 230.534 291.300,230.336 293.407,230.229 294.881 L 230.034 297.563 236.517 297.718 C 240.083 297.803,243.990 298.085,245.200 298.345 C 250.066 299.392,253.010 300.134,253.200 300.363 C 253.310 300.496,254.120 300.851,255.000 301.152 C 256.922 301.809,261.719 304.047,262.000 304.417 C 262.846 305.531,264.800 305.854,264.800 304.880 C 264.800 304.484,264.965 303.989,265.166 303.780 C 265.368 303.571,265.827 300.880,266.188 297.800 C 266.549 294.720,266.991 291.925,267.170 291.589 C 267.349 291.253,267.913 287.653,268.424 283.589 C 268.934 279.525,269.470 276.110,269.615 276.000 C 270.384 275.415,270.820 267.404,270.110 266.915 C 269.719 266.647,269.200 266.258,268.956 266.051 C 268.712 265.843,267.734 265.276,266.781 264.791 C 265.829 264.305,264.824 263.681,264.547 263.404 C 264.271 263.128,263.224 262.659,262.222 262.363 C 261.220 262.067,260.400 261.694,260.400 261.533 C 260.400 261.372,259.365 260.922,258.100 260.531 C 256.835 260.141,255.710 259.703,255.600 259.558 C 255.256 259.104,249.150 257.972,245.686 257.720 C 243.864 257.588,242.278 257.326,242.163 257.140 C 241.868 256.662,238.100 256.714,237.800 257.200 M300.000 261.568 C 300.000 261.771,300.558 262.059,301.241 262.209 L 302.482 262.482 302.202 264.741 C 302.049 265.983,301.786 267.180,301.618 267.400 C 301.450 267.620,301.006 269.870,300.630 272.400 C 300.255 274.930,299.799 277.282,299.617 277.626 C 299.435 277.970,298.975 280.145,298.595 282.458 L 297.905 286.664 296.353 286.249 C 294.778 285.829,294.136 284.094,295.144 282.980 C 295.333 282.771,295.792 280.620,296.164 278.200 C 296.536 275.780,297.002 273.440,297.201 273.000 C 297.478 272.388,299.200 262.388,299.200 261.394 C 299.200 261.287,299.380 261.200,299.600 261.200 C 299.820 261.200,300.000 261.366,300.000 261.568 M295.078 295.055 C 296.075 295.306,296.196 300.140,295.221 300.800 C 295.059 300.910,294.613 303.070,294.230 305.600 C 293.848 308.130,293.378 310.560,293.188 311.000 C 292.997 311.440,292.455 314.320,291.984 317.400 C 291.512 320.480,290.972 323.360,290.783 323.800 C 290.594 324.240,290.133 326.580,289.759 329.000 C 289.385 331.420,289.034 333.457,288.980 333.526 C 288.650 333.947,285.559 332.683,285.744 332.203 C 285.859 331.901,286.078 330.562,286.229 329.227 C 286.380 327.892,286.628 326.800,286.781 326.800 C 286.934 326.800,287.381 324.595,287.775 321.900 C 288.169 319.205,288.627 316.820,288.793 316.600 C 288.960 316.380,289.398 314.130,289.767 311.600 C 290.136 309.070,290.601 306.640,290.801 306.200 C 291.100 305.541,292.800 295.705,292.800 294.633 C 292.800 294.458,293.087 294.424,293.437 294.559 C 293.788 294.693,294.526 294.917,295.078 295.055 M230.950 299.476 C 230.003 299.662,229.847 300.785,229.377 310.800 C 229.248 313.550,228.991 316.160,228.807 316.600 C 228.622 317.040,228.175 322.710,227.813 329.200 C 227.451 335.690,227.072 341.405,226.970 341.900 L 226.785 342.800 232.592 342.800 C 236.197 342.800,238.400 342.952,238.400 343.200 C 238.400 343.420,238.929 343.600,239.575 343.600 C 240.946 343.600,245.837 344.652,247.000 345.197 C 247.440 345.404,249.015 345.954,250.500 346.421 C 251.985 346.888,253.200 347.394,253.200 347.547 C 253.200 347.699,254.100 348.173,255.200 348.600 C 256.300 349.027,257.200 349.516,257.200 349.688 C 257.200 349.860,257.470 350.000,257.800 350.000 C 258.229 350.000,258.400 349.563,258.400 348.467 C 258.400 347.623,258.535 346.800,258.700 346.637 C 258.986 346.353,259.341 343.957,261.874 325.200 C 262.482 320.690,263.098 316.910,263.242 316.800 C 263.619 316.511,264.551 308.171,264.284 307.474 C 264.160 307.152,263.010 306.381,261.729 305.763 C 260.448 305.144,259.310 304.529,259.200 304.396 C 259.090 304.263,258.370 303.911,257.600 303.614 C 256.830 303.317,255.480 302.762,254.600 302.381 C 253.720 302.000,251.920 301.458,250.600 301.178 C 249.280 300.897,248.020 300.533,247.800 300.369 C 246.647 299.507,234.164 298.845,230.950 299.476 M212.000 321.600 C 212.000 321.857,208.133 322.000,201.200 322.000 C 194.267 322.000,190.400 321.857,190.400 321.600 C 190.400 321.343,194.267 321.200,201.200 321.200 C 208.133 321.200,212.000 321.343,212.000 321.600 M131.484 330.046 L 131.877 332.492 130.617 333.019 C 129.923 333.309,128.871 333.667,128.278 333.816 C 127.685 333.965,127.200 334.240,127.200 334.428 C 127.200 334.616,126.447 334.972,125.527 335.220 C 123.813 335.681,119.760 337.415,117.121 338.815 C 116.307 339.247,115.433 339.600,115.179 339.600 C 114.924 339.600,113.820 340.050,112.725 340.600 C 110.140 341.899,110.119 341.894,109.790 339.900 C 109.636 338.965,109.348 337.999,109.150 337.753 C 108.724 337.225,109.356 336.630,110.800 336.200 C 111.350 336.036,112.880 335.410,114.200 334.809 C 115.520 334.208,117.950 333.129,119.600 332.412 C 121.250 331.694,123.500 330.694,124.600 330.189 C 125.700 329.684,127.272 329.062,128.094 328.806 C 128.916 328.551,129.692 328.175,129.818 327.971 C 130.455 326.940,131.116 327.763,131.484 330.046 M215.200 328.000 C 215.200 328.259,210.267 328.400,201.200 328.400 C 192.133 328.400,187.200 328.259,187.200 328.000 C 187.200 327.741,192.133 327.600,201.200 327.600 C 210.267 327.600,215.200 327.741,215.200 328.000 M212.800 334.600 C 212.800 335.120,211.244 335.200,201.200 335.200 C 191.156 335.200,189.600 335.120,189.600 334.600 C 189.600 334.080,191.156 334.000,201.200 334.000 C 211.244 334.000,212.800 334.080,212.800 334.600 M226.258 347.652 C 226.124 349.494,225.898 353.385,225.756 356.300 L 225.497 361.600 240.485 361.600 L 255.473 361.600 255.981 359.300 C 256.260 358.035,256.628 356.820,256.798 356.600 C 257.078 356.237,258.000 352.425,258.000 351.630 C 258.000 351.244,251.643 348.000,250.886 348.000 C 250.603 348.000,249.973 347.744,249.486 347.432 C 248.999 347.119,247.070 346.544,245.200 346.154 C 243.330 345.763,241.677 345.262,241.526 345.040 C 241.365 344.804,238.195 344.568,233.877 344.471 L 226.503 344.305 226.258 347.652 " stroke="none" fill="#9c64ab" fill-rule="evenodd"></path><path id="path4" d="M160.800 187.979 C 160.250 188.160,159.270 188.591,158.622 188.937 C 157.974 189.283,156.579 189.788,155.522 190.059 C 154.465 190.330,153.600 190.684,153.600 190.847 C 153.600 191.010,152.565 191.443,151.300 191.809 C 150.035 192.176,148.803 192.637,148.563 192.834 C 148.323 193.032,148.008 193.075,147.863 192.930 C 147.718 192.785,147.600 192.877,147.600 193.133 C 147.600 193.390,147.351 193.600,147.046 193.600 C 146.348 193.600,142.269 194.883,142.000 195.187 C 141.890 195.311,140.540 195.801,139.000 196.274 C 134.304 197.719,132.296 198.418,130.000 199.411 C 128.790 199.934,127.350 200.487,126.800 200.639 C 125.290 201.056,123.308 202.716,123.039 203.788 C 122.766 204.876,123.506 210.796,123.991 211.400 C 124.167 211.620,124.615 214.230,124.986 217.200 C 125.357 220.170,125.819 222.960,126.014 223.400 C 126.208 223.840,126.419 224.602,126.483 225.093 C 126.602 225.999,129.713 224.501,131.000 222.918 C 131.220 222.647,132.075 222.148,132.900 221.808 C 133.725 221.468,134.400 221.047,134.400 220.874 C 134.400 220.700,135.300 220.234,136.400 219.839 C 137.500 219.443,138.400 218.997,138.400 218.847 C 138.400 218.697,139.255 218.333,140.300 218.037 C 141.345 217.741,142.571 217.270,143.024 216.990 C 143.879 216.462,151.197 214.879,153.530 214.717 C 154.262 214.667,154.948 214.485,155.054 214.313 C 155.325 213.875,164.303 213.920,164.575 214.360 C 164.698 214.558,165.442 214.720,166.230 214.720 L 167.662 214.720 167.392 210.260 C 167.244 207.807,167.038 205.260,166.934 204.600 C 166.831 203.940,166.571 200.610,166.356 197.200 C 165.727 187.201,165.304 186.499,160.800 187.979 M155.014 215.904 C 153.701 215.981,152.423 216.215,152.172 216.423 C 151.922 216.631,151.286 216.788,150.759 216.773 C 149.419 216.735,143.639 218.219,142.197 218.971 C 141.539 219.314,140.839 219.596,140.642 219.598 C 140.105 219.601,134.233 222.463,133.986 222.841 C 133.868 223.022,133.148 223.430,132.386 223.750 C 131.624 224.069,130.460 224.796,129.800 225.365 C 129.140 225.934,128.418 226.399,128.196 226.400 C 126.994 226.401,126.815 227.935,127.419 233.080 C 127.750 235.896,128.055 238.605,128.098 239.100 C 128.140 239.595,128.315 240.000,128.487 240.000 C 128.659 240.000,128.800 240.560,128.800 241.245 C 128.800 243.203,130.102 252.578,130.405 252.800 C 130.649 252.980,132.232 262.491,132.601 266.000 C 132.682 266.770,133.124 270.190,133.584 273.600 C 134.044 277.010,134.465 280.160,134.520 280.600 C 134.575 281.040,134.727 281.580,134.858 281.800 C 134.989 282.020,135.418 284.900,135.810 288.200 C 136.203 291.500,136.644 294.290,136.790 294.400 C 136.937 294.510,137.380 297.300,137.773 300.600 C 138.167 303.900,138.605 306.690,138.745 306.800 C 139.079 307.062,139.051 306.890,140.015 314.673 C 140.473 318.373,141.005 321.760,141.197 322.200 C 141.389 322.640,141.840 325.610,142.200 328.800 C 142.560 331.990,143.006 334.960,143.193 335.400 C 143.379 335.840,143.901 339.170,144.352 342.800 C 144.804 346.430,145.240 349.670,145.322 350.000 C 145.404 350.330,145.610 351.275,145.780 352.100 C 146.051 353.416,146.231 353.600,147.245 353.600 C 147.880 353.600,148.400 353.761,148.400 353.957 C 148.400 354.475,158.270 354.533,158.589 354.017 C 158.731 353.788,159.304 353.600,159.862 353.600 C 160.420 353.600,161.863 353.313,163.068 352.963 C 164.273 352.613,165.354 352.421,165.470 352.537 C 165.586 352.653,164.898 352.947,163.940 353.190 C 162.983 353.434,161.840 353.800,161.400 354.003 C 158.985 355.117,149.394 355.463,146.947 354.524 C 146.044 354.178,146.397 356.988,147.598 359.701 L 148.437 361.600 163.353 361.600 L 178.268 361.600 178.084 358.300 C 177.984 356.485,177.743 354.697,177.551 354.326 C 177.358 353.956,177.200 352.211,177.200 350.450 C 177.200 346.507,176.993 346.367,174.084 348.343 C 172.803 349.213,171.052 350.218,170.192 350.578 C 169.332 350.937,168.530 351.390,168.410 351.584 C 168.290 351.778,167.654 352.057,166.996 352.205 L 165.800 352.473 167.000 351.638 C 167.660 351.179,168.785 350.609,169.500 350.371 C 170.215 350.133,170.800 349.793,170.800 349.616 C 170.800 349.438,171.115 349.188,171.500 349.058 C 172.238 348.810,173.306 348.147,174.365 347.279 C 174.714 346.993,175.428 346.442,175.952 346.054 L 176.903 345.349 176.424 337.175 C 176.160 332.679,175.918 328.608,175.887 328.129 C 175.856 327.650,175.726 327.322,175.599 327.400 C 175.425 327.508,174.289 310.505,173.468 295.500 C 173.447 295.115,173.316 294.800,173.177 294.800 C 173.039 294.800,172.696 290.165,172.415 284.500 C 172.135 278.835,171.846 273.879,171.773 273.487 C 171.701 273.095,171.609 271.295,171.571 269.487 C 171.532 267.679,171.369 266.020,171.207 265.800 C 171.045 265.580,170.691 261.080,170.420 255.800 C 170.149 250.520,169.660 242.690,169.333 238.400 C 169.006 234.110,168.527 227.420,168.269 223.532 C 168.011 219.645,167.709 216.375,167.599 216.265 C 167.328 215.995,157.998 215.727,155.014 215.904 M156.800 248.800 C 156.800 249.020,156.530 249.200,156.200 249.200 C 155.870 249.200,155.600 249.020,155.600 248.800 C 155.600 248.580,155.870 248.400,156.200 248.400 C 156.530 248.400,156.800 248.580,156.800 248.800 M154.600 249.600 C 153.404 250.114,152.405 250.114,153.200 249.600 C 153.530 249.387,154.160 249.222,154.600 249.234 L 155.400 249.256 154.600 249.600 M150.800 250.708 C 150.800 250.877,149.225 251.443,147.300 251.966 C 145.375 252.489,143.577 253.090,143.305 253.303 C 143.033 253.516,142.493 253.562,142.105 253.406 C 141.624 253.213,142.529 252.827,144.950 252.192 C 146.902 251.680,148.693 251.067,148.930 250.830 C 149.423 250.337,150.800 250.247,150.800 250.708 M161.773 257.165 C 161.568 257.358,160.770 257.640,160.000 257.793 C 158.700 258.050,158.657 258.028,159.400 257.483 C 160.667 256.553,162.715 256.279,161.773 257.165 M156.400 258.832 C 153.338 259.954,149.950 260.883,149.728 260.662 C 149.626 260.560,150.135 260.346,150.858 260.187 C 151.582 260.028,152.450 259.735,152.787 259.536 C 153.645 259.030,156.839 258.084,157.800 258.053 C 158.240 258.038,157.610 258.389,156.400 258.832 M148.800 261.092 C 148.470 261.217,148.110 261.456,147.999 261.623 C 147.889 261.790,147.169 262.008,146.399 262.107 C 145.630 262.207,145.315 262.211,145.700 262.116 C 146.085 262.022,146.400 261.790,146.400 261.602 C 146.400 261.221,147.374 260.901,148.600 260.878 C 149.159 260.868,149.219 260.932,148.800 261.092 M144.000 262.800 C 143.670 263.013,142.995 263.191,142.500 263.194 C 142.005 263.197,141.600 263.342,141.600 263.515 C 141.600 263.688,141.213 263.859,140.740 263.895 C 139.526 263.986,140.315 263.343,142.000 262.867 C 143.973 262.310,144.801 262.282,144.000 262.800 M163.600 265.973 C 163.600 266.423,162.037 266.970,161.703 266.637 C 161.573 266.506,161.767 266.400,162.133 266.400 C 162.500 266.400,162.800 266.220,162.800 266.000 C 162.800 265.780,162.980 265.600,163.200 265.600 C 163.420 265.600,163.600 265.768,163.600 265.973 M159.100 267.476 C 158.715 267.576,158.400 267.796,158.400 267.964 C 158.400 268.132,156.960 268.598,155.200 269.000 C 153.440 269.402,152.000 269.847,152.000 269.988 C 152.000 270.130,150.695 270.577,149.100 270.983 C 147.505 271.388,145.750 271.941,145.200 272.212 C 144.650 272.482,143.570 272.813,142.800 272.947 C 142.030 273.081,141.670 273.076,142.000 272.935 C 142.330 272.795,142.690 272.567,142.800 272.428 C 142.910 272.290,144.350 271.837,146.000 271.422 C 147.650 271.006,149.090 270.543,149.200 270.391 C 149.310 270.240,151.020 269.696,153.000 269.182 C 154.980 268.669,156.690 268.129,156.800 267.984 C 157.103 267.583,158.106 267.261,159.000 267.278 C 159.661 267.290,159.679 267.325,159.100 267.476 M162.260 276.454 C 161.854 276.691,160.280 277.235,158.763 277.665 C 157.246 278.094,155.508 278.704,154.902 279.020 C 154.296 279.336,153.440 279.582,153.000 279.566 C 152.421 279.545,152.366 279.474,152.800 279.308 C 153.130 279.183,153.490 278.957,153.600 278.806 C 153.710 278.655,154.983 278.238,156.428 277.879 C 157.873 277.521,159.583 276.952,160.228 276.616 C 161.644 275.878,163.507 275.729,162.260 276.454 M151.200 280.000 C 149.832 280.438,148.781 280.438,149.800 280.000 C 150.240 279.811,150.960 279.662,151.400 279.668 C 152.043 279.677,152.004 279.743,151.200 280.000 M149.000 280.800 C 149.136 281.020,149.012 281.202,148.724 281.205 C 148.436 281.208,147.750 281.321,147.200 281.455 C 146.225 281.694,146.220 281.684,147.000 281.063 C 147.926 280.325,148.648 280.230,149.000 280.800 M146.000 281.551 C 146.000 281.745,145.280 282.085,144.400 282.309 C 143.497 282.538,142.800 282.559,142.800 282.357 C 142.800 282.161,143.205 281.997,143.700 281.994 C 144.195 281.991,144.870 281.813,145.200 281.600 C 145.944 281.119,146.000 281.116,146.000 281.551 M161.400 286.628 C 157.978 287.823,157.277 288.029,156.000 288.221 C 155.339 288.320,155.271 288.293,155.800 288.139 C 156.240 288.012,156.690 287.768,156.800 287.597 C 157.039 287.225,162.262 285.702,163.400 285.672 C 163.840 285.660,162.940 286.090,161.400 286.628 M152.228 289.416 C 151.583 289.752,149.918 290.313,148.528 290.662 C 147.138 291.011,146.000 291.455,146.000 291.649 C 146.000 291.842,145.640 292.000,145.200 292.000 C 143.499 292.000,144.523 291.256,147.100 290.618 C 148.585 290.251,150.250 289.698,150.800 289.389 C 151.350 289.081,152.160 288.823,152.600 288.817 C 153.231 288.807,153.152 288.934,152.228 289.416 M161.906 296.228 C 161.780 296.353,160.625 296.730,159.339 297.065 C 158.052 297.400,156.820 297.816,156.600 297.991 C 156.380 298.165,155.570 298.431,154.800 298.581 C 152.367 299.055,154.961 297.858,158.217 297.004 C 159.747 296.602,161.168 296.125,161.373 295.943 C 161.778 295.585,162.280 295.854,161.906 296.228 M150.400 299.972 C 148.778 300.628,144.962 301.547,146.400 300.935 C 146.730 300.795,147.090 300.558,147.200 300.409 C 147.407 300.128,150.545 299.316,151.600 299.270 C 151.930 299.255,151.390 299.571,150.400 299.972 M72.000 367.380 C 72.000 367.667,74.506 371.325,75.283 372.171 C 75.672 372.594,76.095 373.269,76.222 373.671 C 76.350 374.072,76.583 374.400,76.741 374.400 C 76.898 374.400,77.365 374.985,77.777 375.700 C 78.190 376.415,78.773 377.270,79.073 377.600 C 80.274 378.919,81.533 381.195,82.194 383.242 C 82.577 384.429,83.113 385.760,83.385 386.200 C 83.656 386.640,84.109 387.720,84.391 388.600 C 84.673 389.480,85.131 390.650,85.408 391.200 C 85.686 391.750,86.226 392.954,86.607 393.876 C 86.988 394.798,87.548 395.648,87.850 395.764 C 88.153 395.880,88.400 396.173,88.400 396.416 C 88.400 397.489,91.813 399.600,93.547 399.600 L 94.800 399.600 94.800 383.400 L 94.800 367.200 83.400 367.200 C 77.130 367.200,72.000 367.281,72.000 367.380 M122.496 383.500 L 122.600 399.800 140.200 399.800 L 157.800 399.800 157.904 383.500 L 158.009 367.200 140.200 367.200 L 122.391 367.200 122.496 383.500 M185.200 382.967 C 185.200 391.639,185.309 399.019,185.443 399.367 C 185.659 399.931,187.602 400.000,203.243 400.000 L 220.800 400.000 220.800 383.600 L 220.800 367.200 203.000 367.200 L 185.200 367.200 185.200 382.967 M248.496 383.500 L 248.600 399.800 266.200 399.800 L 283.800 399.800 283.904 383.500 L 284.009 367.200 266.200 367.200 L 248.391 367.200 248.496 383.500 M311.600 383.387 C 311.600 398.649,311.640 399.557,312.300 399.279 C 316.711 397.419,316.976 397.210,319.600 393.531 C 321.030 391.526,322.438 389.641,322.729 389.343 C 323.019 389.044,323.150 388.800,323.018 388.800 C 322.887 388.800,323.030 388.305,323.336 387.700 C 323.642 387.095,324.120 385.610,324.399 384.400 C 324.677 383.190,325.037 382.020,325.199 381.800 C 325.362 381.580,325.810 380.433,326.195 379.252 C 326.581 378.070,327.190 376.784,327.548 376.392 C 327.907 376.001,328.740 375.008,329.400 374.185 C 330.060 373.362,330.915 372.354,331.300 371.944 C 331.685 371.535,331.903 371.200,331.784 371.200 C 331.666 371.200,331.753 370.975,331.978 370.700 C 333.874 368.387,334.343 367.677,334.122 367.456 C 333.982 367.315,328.857 367.200,322.733 367.200 L 311.600 367.200 311.600 383.387 " stroke="none" fill="#4c65ac" fill-rule="evenodd"></path></g></svg>